<svg width="156" height="21" viewBox="0 0 156 21" fill="none" xmlns="http://www.w3.org/2000/svg">
<path d="M143.028 6.73819C138.817 3.77701 134.045 0.421875 124.799 0.421875C115.553 0.421875 110.78 3.77701 106.57 6.73819C102.872 9.33755 99.9518 11.3906 93.5974 11.3906C87.2442 11.3906 84.3235 9.33755 80.6267 6.73819C76.4171 3.77701 71.6444 0.421875 62.3979 0.421875C53.1525 0.421875 48.3799 3.77701 44.1702 6.73819C40.4734 9.33755 37.5527 11.3906 31.1995 11.3906C24.8463 11.3906 21.9256 9.33755 18.2289 6.73819C14.018 3.77701 9.24536 0.421875 0 0.421875V9.5625C6.3544 9.5625 9.27393 11.6156 12.9706 14.2149C17.1815 17.1761 21.953 20.5312 31.1995 20.5312C40.4449 20.5312 45.2175 17.1761 49.4272 14.2149C53.1239 11.6156 56.0446 9.5625 62.3979 9.5625C68.7523 9.5625 71.6718 11.6156 75.3697 14.2149C79.5794 17.1761 84.352 20.5312 93.5974 20.5312C102.844 20.5312 107.617 17.1761 111.827 14.2149C115.524 11.6156 118.445 9.5625 124.799 9.5625C131.154 9.5625 134.073 11.6156 137.771 14.2149C141.981 17.1761 146.753 20.5312 156 20.5312V11.3906C149.646 11.3906 146.725 9.33755 143.028 6.73819Z" fill="white"/>
</svg>
