<svg width="85" height="85" viewBox="0 0 85 85" fill="none" xmlns="http://www.w3.org/2000/svg">
<path d="M68.4726 84.9573H15.9652C11.7869 84.9184 7.79161 83.2402 4.84252 80.2853C1.89343 77.3303 0.227308 73.3357 0.204102 69.1647V16.8091C0.211947 12.6074 1.88751 8.57993 4.86387 5.60883C7.84022 2.63772 11.8748 0.965107 16.084 0.957275H68.4726C72.656 1.00402 76.6526 2.6938 79.597 5.66071C82.5414 8.62762 84.1966 12.6329 84.2041 16.8091V69.1647C84.181 73.3307 82.519 77.3208 79.5762 80.2749C76.6335 83.2291 72.6458 84.9107 68.4726 84.9573ZM15.9652 4.95728C12.7941 4.95667 9.74927 6.19773 7.48486 8.41382C5.22045 10.6299 3.91716 13.6442 3.85498 16.8091V69.1647C3.85498 72.3708 5.13088 75.4457 7.40199 77.7128C9.6731 79.9799 12.7534 81.2536 15.9652 81.2536H68.4726C71.6432 81.1915 74.6628 79.8905 76.8828 77.6301C79.1028 75.3697 80.346 72.3302 80.3454 69.1647V16.8091C80.2846 13.6848 79.0142 10.7054 76.8007 8.49576C74.5872 6.28612 71.6025 5.01796 68.4726 4.95728H15.9652Z" fill="#009845"/>
<path d="M47.6961 39.1794C47.716 38.9009 47.6699 38.6217 47.5617 38.3643C47.4534 38.1069 47.2859 37.8786 47.0728 37.6979C45.7802 36.6929 44.1674 36.1879 42.5314 36.2757C40.1865 36.2757 37.3964 37.1349 37.0996 39.5645C37.2777 43.209 37.812 63.2683 38.0494 70.2608H46.7463C46.7463 63.2683 47.3399 43.2682 47.6961 39.1794Z" fill="#009845"/>
<path d="M33.8047 34.1126C34.1837 34.3572 34.5324 34.6456 34.8436 34.9719C36.9609 33.2088 39.6572 32.2905 42.4125 32.3941C45.1182 32.3084 47.7673 33.1794 49.8924 34.8534C50.2699 34.5336 50.6664 34.2368 51.0796 33.9645C53.8962 32.423 57.1855 31.9796 60.3107 32.72L61.8542 15.8015H22.4365L23.9503 32.7793C27.2738 31.9237 30.8009 32.4024 33.775 34.1126" fill="#009845"/>
<path d="M32.6464 39.5943V39.3572C32.5826 38.9335 32.4275 38.5287 32.1917 38.1706C31.956 37.8126 31.6453 37.5098 31.281 37.2832C30.2186 36.7329 29.056 36.402 27.8627 36.3104C26.6693 36.2187 25.4696 36.3682 24.3354 36.7498L27.3036 70.2609H33.6259V69.5498C33.6259 69.3128 32.8245 43.6535 32.587 39.5943" fill="#009845"/>
<path d="M53.6314 37.1943C53.1637 37.4286 52.7663 37.7823 52.4796 38.2194C52.1929 38.6565 52.0271 39.1615 51.9989 39.6832C51.5537 45.0461 50.9897 69.3128 50.9897 69.5498V70.1424H56.9261L59.8943 36.4832C57.7969 35.883 55.5498 36.0946 53.6018 37.0758" fill="#009845"/>
</svg>
