<svg width="85" height="85" viewBox="0 0 85 85" fill="none" xmlns="http://www.w3.org/2000/svg">
<path d="M68.8893 84.9573H16.6227C14.5371 84.9573 12.472 84.5465 10.5451 83.7484C8.6183 82.9502 6.86754 81.7804 5.39281 80.3057C3.91808 78.831 2.74823 77.0802 1.95011 75.1534C1.15199 73.2265 0.741211 71.1614 0.741211 69.0758V16.8388C0.741211 14.7532 1.15199 12.688 1.95011 10.7612C2.74823 8.83435 3.91808 7.08359 5.39281 5.60885C6.86754 4.13412 8.6183 2.9643 10.5451 2.16618C12.472 1.36806 14.5371 0.957275 16.6227 0.957275H68.8893C73.0962 0.965124 77.1282 2.64182 80.1001 5.61932C83.0721 8.59683 84.7412 12.6319 84.7412 16.8388V69.0758C84.7412 73.2827 83.0721 77.3177 80.1001 80.2952C77.1282 83.2727 73.0962 84.9494 68.8893 84.9573ZM16.6227 4.72024C13.4138 4.72809 10.339 6.00831 8.07275 8.28013C5.80649 10.5519 4.53379 13.6299 4.5338 16.8388V69.0758C4.53379 72.2847 5.80649 75.3626 8.07275 77.6344C10.339 79.9062 13.4138 81.1865 16.6227 81.1943H68.8893C72.0982 81.1865 75.173 79.9062 77.4393 77.6344C79.7055 75.3626 80.9782 72.2847 80.9782 69.0758V16.8388C80.9705 13.6322 79.6953 10.5589 77.4307 8.28873C75.1661 6.0186 72.0958 4.73587 68.8893 4.72024H16.6227Z" fill="#009845"/>
<path d="M77.1271 45.8463C77.0972 45.4229 76.9834 45.0098 76.7924 44.6308C76.6013 44.2519 76.3368 43.9147 76.0142 43.639C75.6915 43.3632 75.3173 43.1544 74.9132 43.0247C74.5091 42.895 74.0832 42.8469 73.6604 42.8833L67.7345 43.4759V42.2611C67.7345 37.9648 72.0604 34.4685 67.7345 34.4685H18.5494C14.2234 34.4685 18.5494 37.9648 18.5494 42.2611V43.6241L11.9419 43.0018C11.105 42.9193 10.2696 43.1727 9.61952 43.7061C8.96939 44.2395 8.55778 45.0094 8.47527 45.8463C8.39276 46.6832 8.64609 47.5186 9.17952 48.1687C9.71296 48.8188 10.4828 49.2304 11.3197 49.313L18.5494 49.9944V65.4611C18.5491 67.5075 19.3538 69.4718 20.7897 70.9298C22.2255 72.3879 24.1773 73.2226 26.2234 73.2537H59.8234C60.8542 73.2655 61.8771 73.0726 62.8328 72.6862C63.7885 72.2999 64.6581 71.7278 65.3911 71.003C66.1242 70.2782 66.7061 69.4152 67.1033 68.4639C67.5005 67.5126 67.7049 66.492 67.7049 65.4611V49.9648L74.3419 49.3426C74.7653 49.3127 75.1784 49.1989 75.5574 49.0079C75.9363 48.8168 76.2735 48.5522 76.5492 48.2296C76.825 47.907 77.0338 47.5328 77.1635 47.1287C77.2932 46.7246 77.3413 46.2987 77.3049 45.8759" fill="#009845"/>
<path fill-rule="evenodd" clip-rule="evenodd" d="M63.4077 31.9205C63.4077 31.9205 57.4818 29.6094 42.667 29.6094C35.6796 29.4128 28.699 30.1906 21.9263 31.9205V32.6612H63.4077V31.9205Z" fill="#009845"/>
<path d="M41.6017 26.2608C37.9572 22.8534 40.0313 19.5052 41.2758 17.52C42.5202 15.5348 42.9646 14.5571 41.5424 13.1645L44.2091 10.4978C45.3836 11.6633 46.0661 13.2351 46.1157 14.889C46.1653 16.543 45.5783 18.1529 44.4758 19.3867C43.0832 21.6385 42.9054 22.3497 44.1795 23.3867L41.6017 26.2608Z" fill="#009845"/>
<path d="M35.3789 26.261C34.7439 25.8015 34.2148 25.2111 33.8274 24.5298C33.4399 23.8484 33.2031 23.0918 33.1329 22.3112C33.0627 21.5305 33.1607 20.7438 33.4204 20.0042C33.6801 19.2647 34.0953 18.5894 34.6382 18.024C35.616 16.661 35.5863 16.6017 35.053 16.0388L38.016 13.5203C38.853 14.4375 39.3047 15.6418 39.2771 16.8833C39.2495 18.1247 38.7448 19.3078 37.8678 20.1869C36.8011 21.698 36.5641 22.0536 38.1048 23.5054L35.3789 26.261Z" fill="#009845"/>
<path d="M48.8592 26.261C48.2201 25.8046 47.6871 25.2155 47.2968 24.534C46.9064 23.8525 46.6679 23.0948 46.5976 22.3126C46.5273 21.5304 46.6267 20.7422 46.8892 20.002C47.1517 19.2618 47.5711 18.5871 48.1185 18.024C49.0666 16.661 49.037 16.6017 48.5333 16.0388L51.3481 13.5203C52.2117 14.415 52.6943 15.6101 52.6943 16.8536C52.6943 18.0971 52.2117 19.2921 51.3481 20.1869C50.3111 21.698 50.0444 22.0536 51.5851 23.5054L48.8592 26.261Z" fill="#009845"/>
</svg>
