<svg width="85" height="85" viewBox="0 0 85 85" fill="none" xmlns="http://www.w3.org/2000/svg">
<path d="M68.3467 84.9573H16.0615C11.8583 84.9494 7.82944 83.2768 4.85729 80.3057C1.88514 77.3346 0.211936 73.3072 0.204102 69.1054V16.8388C0.204094 12.6319 1.87384 8.5968 4.84684 5.6193C7.81984 2.64179 11.8532 0.965124 16.0615 0.957275H68.3467C72.555 0.965124 76.5884 2.64179 79.5614 5.6193C82.5344 8.5968 84.2041 12.6319 84.2041 16.8388V69.1054C84.1963 73.3072 82.5231 77.3346 79.5509 80.3057C76.5788 83.2768 72.5499 84.9494 68.3467 84.9573ZM16.0615 4.74986C12.8542 4.74986 9.7783 6.0235 7.51039 8.2906C5.24249 10.5577 3.96839 13.6326 3.96839 16.8388V69.1054C3.97624 72.3065 5.2538 75.3737 7.52085 77.6344C9.78791 79.8951 12.8594 81.1647 16.0615 81.1647H68.3467C69.9372 81.1725 71.5137 80.8665 72.9859 80.2644C74.458 79.6622 75.7968 78.7756 76.9257 77.6554C78.0545 76.5352 78.9512 75.2034 79.5644 73.7363C80.1776 72.2691 80.4952 70.6955 80.4991 69.1054V16.8388C80.4991 13.6326 79.225 10.5577 76.9571 8.2906C74.6892 6.0235 71.6132 4.74986 68.4059 4.74986H16.0615Z" fill="#009845"/>
<path d="M41.5522 59.15C44.7263 59.1422 47.8595 58.4344 50.7286 57.0772C53.5977 55.72 56.1319 53.7467 58.1506 51.2981C58.6825 51.2302 59.196 51.0591 59.6623 50.7944C60.381 50.4134 61.1655 50.1721 61.9742 50.0833C64.0019 49.9726 65.9139 49.1037 67.3305 47.6491C68.7471 46.1946 69.5648 44.2607 69.6213 42.2315C69.612 40.4443 68.9975 38.7128 67.8779 37.3193C66.7584 35.9258 65.1999 34.9523 63.4562 34.5574V30.0537H19.5889V38.1722C19.9033 43.7867 22.3353 49.0732 26.3946 52.9661C30.4539 56.859 35.8386 59.0688 41.4633 59.15H41.5522ZM65.7681 42.2315C65.694 43.3351 65.2082 44.3707 64.4069 45.1333C63.6055 45.896 62.547 46.3302 61.4407 46.35H61.2035C62.3874 43.8671 63.0913 41.183 63.2783 38.4389C64.0123 38.7591 64.6379 39.2847 65.0797 39.9524C65.5215 40.6201 65.7606 41.4013 65.7681 42.2018" fill="#009845"/>
<path d="M68.287 61.5198H14.7866V65.2827H68.287V61.5198Z" fill="#009845"/>
<path d="M42.8563 26.083C41.5522 24.8978 41.73 24.3348 43.1231 22.083C44.2367 20.8562 44.8337 19.247 44.7895 17.591C44.7453 15.9349 44.0634 14.3598 42.886 13.1941L40.2184 15.8608C41.6114 17.283 41.2558 18.0237 39.922 20.2163C38.5882 22.4089 36.6023 25.5496 40.248 28.9571L42.8563 26.083Z" fill="#009845"/>
<path d="M36.6315 26.0826C35.0902 24.6603 35.357 24.2752 36.3944 22.7641C37.2853 21.8924 37.7996 20.7068 37.8273 19.4609C37.855 18.215 37.3939 17.0078 36.5426 16.0974L33.5786 18.6159C34.0825 19.2085 34.1417 19.2381 33.1636 20.6011C32.6206 21.1665 32.2052 21.8418 31.9454 22.5814C31.6856 23.3209 31.5876 24.1076 31.6578 24.8883C31.728 25.669 31.9649 26.4255 32.3525 27.1069C32.7401 27.7883 33.2694 28.3786 33.9046 28.8381L36.6315 26.0826Z" fill="#009845"/>
<path d="M50.1181 26.0826C48.5768 24.6307 48.8139 24.2752 49.881 22.7641C50.738 21.8658 51.2162 20.6721 51.2162 19.4307C51.2162 18.1894 50.738 16.9957 49.881 16.0974L46.917 18.6159C47.4505 19.2085 47.4801 19.2381 46.5317 20.6011C45.984 21.1642 45.5645 21.8389 45.302 22.5791C45.0394 23.3193 44.9398 24.1075 45.0102 24.8897C45.0806 25.6719 45.3192 26.4297 45.7096 27.1111C46.1001 27.7926 46.6333 28.3817 47.2727 28.8381L50.1181 26.0826Z" fill="#009845"/>
</svg>
