<svg width="85" height="85" viewBox="0 0 85 85" fill="none" xmlns="http://www.w3.org/2000/svg">
<path d="M68.3522 84.8384H16.0856C11.9042 84.8387 7.89139 83.1928 4.91809 80.2579C1.9448 77.3231 0.250908 73.3362 0.204102 69.1624V16.8398C0.211933 12.6376 1.88768 8.60978 4.86434 5.63836C7.841 2.66694 11.876 0.994146 16.0856 0.986328H68.3522C72.5591 0.994163 76.591 2.6679 79.563 5.64016C82.5349 8.61243 84.2041 12.6404 84.2041 16.8398V69.1624C84.1963 73.3567 82.5237 77.3771 79.5525 80.343C76.5814 83.3088 72.554 84.9785 68.3522 84.9863V84.8384ZM16.0856 4.92014C14.498 4.92014 12.9261 5.23229 11.4594 5.83874C9.9927 6.4452 8.66001 7.33408 7.53745 8.45466C6.41489 9.57524 5.52444 10.9055 4.91692 12.3696C4.3094 13.8338 3.99669 15.403 3.99669 16.9877V69.1624C3.99669 70.7471 4.3094 72.3164 4.91692 73.7805C5.52444 75.2446 6.41489 76.5749 7.53745 77.6954C8.66001 78.816 9.9927 79.7049 11.4594 80.3114C12.9261 80.9178 14.498 81.23 16.0856 81.23H68.3522C69.9398 81.23 71.5118 80.9178 72.9785 80.3114C74.4452 79.7049 75.7778 78.816 76.9004 77.6954C78.0229 76.5749 78.9134 75.2446 79.5209 73.7805C80.1285 72.3164 80.4411 70.7471 80.4411 69.1624V16.8398C80.4411 13.6393 79.1675 10.5699 76.9004 8.30677C74.6333 6.04365 71.5584 4.77224 68.3522 4.77224L16.0856 4.92014Z" fill="#009845"/>
<path d="M58.071 21.6314L50.8414 21.868C43.997 21.868 40.7377 32.4567 36.0266 33.8765C18.2489 39.0525 12.9155 50.706 12.9155 50.706H71.2562C71.2562 50.706 75.5821 20.537 58.1895 21.6314H58.071ZM56.9747 32.9595H51.3451C48.3822 32.9595 45.0636 33.5215 45.0636 30.6525C45.1797 29.1221 45.8413 27.6839 46.9285 26.5986C48.0157 25.5133 49.4564 24.8529 50.9895 24.737H58.9599C60.4932 24.9212 61.9089 25.6503 62.9481 26.7908C63.9872 27.9313 64.5804 29.4071 64.6192 30.9483C64.6192 33.906 60.1155 33.1074 57.0933 33.1074L56.9747 32.9595ZM59.0192 31.5398C59.0192 31.885 58.8818 32.216 58.6373 32.4601C58.3928 32.7041 58.0612 32.8412 57.7155 32.8412H52.3525C52.0067 32.8412 51.6751 32.7041 51.4307 32.4601C51.1862 32.216 51.0488 31.885 51.0488 31.5398C51.0565 31.1998 51.1973 30.8763 51.441 30.6386C51.6846 30.4009 52.0118 30.2679 52.3525 30.268H57.5377C57.8784 30.2679 58.2056 30.4009 58.4492 30.6386C58.6929 30.8763 58.8337 31.1998 58.8414 31.5398" fill="#009845"/>
<path d="M71.138 52.5399C71.138 53.0428 70.5454 53.4568 69.8047 53.4568H13.6566C12.9158 53.4568 12.3232 53.0428 12.3232 52.5399C12.3232 52.0371 12.9158 51.6526 13.6566 51.6526H69.8047C70.5454 51.6526 71.138 52.0667 71.138 52.5399Z" fill="#009845"/>
<path d="M23.6416 66.9143C23.0066 66.4556 22.4775 65.8663 22.0901 65.1862C21.7026 64.506 21.4658 63.7507 21.3956 62.9714C21.3254 62.1921 21.4234 61.4069 21.6831 60.6686C21.9427 59.9303 22.358 59.2563 22.9009 58.6918C23.8787 57.3313 23.8194 57.2721 23.3157 56.7101L26.2787 54.196C27.1297 55.1048 27.5907 56.3099 27.563 57.5536C27.5353 58.7973 27.0211 59.9808 26.1305 60.851C25.0935 62.3594 24.8268 62.7143 26.3676 64.1636L23.6416 66.9143Z" fill="#009845"/>
<path d="M35.0488 66.9143C34.4138 66.4556 33.8847 65.8663 33.4973 65.1862C33.1098 64.506 32.873 63.7507 32.8028 62.9714C32.7326 62.1921 32.8306 61.4069 33.0903 60.6686C33.35 59.9303 33.7653 59.2563 34.3081 58.6918C35.2859 57.3313 35.2266 57.2721 34.7229 56.7101L37.5377 54.196C38.3887 55.1048 38.8496 56.3099 38.8219 57.5536C38.7942 58.7973 38.2801 59.9808 37.3896 60.851C36.3525 62.3594 36.0859 62.7143 37.6266 64.1636L35.0488 66.9143Z" fill="#009845"/>
<path d="M46.4271 66.9143C45.788 66.4587 45.255 65.8707 44.8647 65.1904C44.4743 64.5101 44.2358 63.7536 44.1655 62.9728C44.0951 62.192 44.1946 61.4053 44.4571 60.6664C44.7196 59.9275 45.1389 59.2539 45.6864 58.6918C46.6642 57.3313 46.6049 57.2721 46.1012 56.7101L48.916 54.196C49.7865 55.0857 50.2739 56.2799 50.2739 57.5235C50.2739 58.7671 49.7865 59.9613 48.916 60.851C47.879 62.3594 47.6123 62.7143 49.1531 64.1636L46.4271 66.9143Z" fill="#009845"/>
<path d="M57.8636 66.9143C57.2245 66.4587 56.6915 65.8707 56.3012 65.1904C55.9108 64.5101 55.6723 63.7536 55.602 62.9728C55.5317 62.192 55.6311 61.4053 55.8936 60.6664C56.1561 59.9275 56.5755 59.2539 57.1229 58.6918C58.1007 57.3313 58.0414 57.2721 57.5377 56.7101L60.3525 54.196C61.223 55.0857 61.7104 56.2799 61.7104 57.5235C61.7104 58.7671 61.223 59.9613 60.3525 60.851C59.3155 62.3594 59.0488 62.7143 60.5896 64.1636L57.8636 66.9143Z" fill="#009845"/>
</svg>
