<svg width="85" height="85" viewBox="0 0 85 85" fill="none" xmlns="http://www.w3.org/2000/svg">
<path fill-rule="evenodd" clip-rule="evenodd" d="M8.6677 73.2234C8.05896 71.5156 7.83633 69.6942 8.01585 67.8901C7.9332 60.0583 10.5371 52.4348 15.3936 46.2901C19.6306 40.6012 24.0455 35.0308 28.3418 29.4308C31.0371 25.9723 33.1123 22.0725 34.4751 17.9049C35.8448 14.2784 38.083 11.0431 40.9936 8.48267C40.9936 10.4382 41.201 11.7715 41.2603 12.8975L46.4158 16.6901L51.601 17.5197C52.8158 20.1864 52.5492 20.9864 49.764 22.7641C49.1043 22.69 48.4385 22.69 47.7788 22.7641C46.9585 22.836 46.165 23.0917 45.4571 23.5124C44.7492 23.933 44.1452 24.5077 43.6899 25.1938C42.8496 26.2859 42.238 27.5362 41.8918 28.8701C41.5457 30.2039 41.472 31.5938 41.6751 32.9567C42.4202 36.4531 42.1635 40.0887 40.9344 43.4456C39.4163 48.9522 39.073 54.7164 39.9269 60.3641C40.164 63.3271 40.4603 66.0234 40.6381 68.0975C42.001 71.3864 44.4307 70.7938 45.7936 72.8975C45.0529 72.8975 38.564 72.8975 38.564 72.8975C38.564 72.8975 37.527 67.8308 36.727 65.3123C35.927 62.7938 35.6306 60.8382 34.9788 58.6456C34.564 57.3123 33.9121 56.0679 33.3195 54.616L30.8603 55.9493C34.801 60.0975 34.7121 63.7419 30.5936 67.6234C29.1714 68.9567 27.9269 69.6382 26.3862 70.853C28.8444 70.4757 31.3534 70.5967 33.764 71.2086C34.4386 71.5731 34.9786 72.1442 35.3047 72.8382C28.2391 73.2496 21.1555 73.2496 14.0899 72.8382C12.4899 72.6012 12.401 73.4604 13.2306 73.6975C19.6172 75.6369 26.3383 76.2222 32.964 75.416C36.8158 75.179 35.6603 76.3642 33.527 76.8382C28.5492 77.9642 11.9566 80.0975 8.6677 73.2234ZM45.3195 72.9271C45.5138 72.2951 45.8366 71.71 46.2677 71.2086C46.9491 70.5864 47.7492 70.8827 48.8455 70.5567C49.0232 69.4604 49.2603 68.4234 49.4084 67.3567C49.7344 64.3938 50.0306 61.4308 50.3566 58.4678C50.6713 55.8775 50.0742 53.2584 48.6677 51.0604C47.1965 48.2029 46.7971 44.913 47.5418 41.7864C47.9122 39.785 48.397 37.8064 48.9936 35.8604C47.8381 33.9049 44.9344 32.8975 45.0529 29.4901L49.8529 25.9642C50.668 25.4994 51.5203 25.1029 52.401 24.779C53.4973 22.9419 52.8158 20.5123 54.6232 18.853C56.3121 19.3864 56.4899 20.9271 57.1121 22.1123C57.4704 23.1129 58.0131 24.0375 58.7121 24.8382C60.1426 25.9372 61.2538 27.3982 61.931 29.0702C62.6081 30.7422 62.8266 32.5646 62.564 34.3493C62.564 34.7345 62.564 35.1197 62.564 35.5641C63.9117 38.7814 66.0647 41.5976 68.8158 43.7419C71.6482 45.9949 73.6583 49.1193 74.5343 52.6308C76.5492 59.3271 78.1788 66.2901 76.1047 72.8678C75.3047 75.3864 71.7492 79.0012 50.9788 76.5715C47.5418 76.1567 47.4529 73.9641 49.8529 74.2308C53.3492 74.6456 66.0603 75.8012 69.4973 74.4382C72.9344 73.0752 70.327 72.779 69.4973 72.779C64.3418 72.779 58.9195 75.2382 56.4306 72.779C53.9418 70.3197 55.8381 62.3493 55.5121 61.3716C54.801 62.4679 52.5492 71.6234 51.7195 72.779L45.3195 72.9271Z" fill="#009845"/>
<path d="M68.8151 84.9863H16.5485C12.3388 84.9785 8.30389 83.3027 5.32723 80.3261C2.35057 77.3494 0.674824 73.3145 0.666992 69.1048V16.8382C0.674841 12.6313 2.35153 8.59937 5.32904 5.62742C8.30654 2.65547 12.3416 0.986321 16.5485 0.986328H68.8151C73.0169 0.99416 77.0443 2.66676 80.0154 5.63786C82.9865 8.60897 84.6592 12.6364 84.667 16.8382V69.1048C84.667 73.3117 82.9978 77.3468 80.0259 80.3243C77.0539 83.3018 73.022 84.9785 68.8151 84.9863ZM16.5485 4.74928C13.3396 4.74927 10.2617 6.02198 7.98985 8.28824C5.71804 10.5545 4.43781 13.6293 4.42997 16.8382V69.1048C4.43781 72.3137 5.71804 75.3885 7.98985 77.6548C10.2617 79.921 13.3396 81.1937 16.5485 81.1937H68.8151C72.0213 81.1937 75.0962 79.9201 77.3633 77.653C79.6304 75.3859 80.904 72.311 80.904 69.1048V16.8382C80.904 13.632 79.6304 10.5572 77.3633 8.29004C75.0962 6.02294 72.0213 4.74928 68.8151 4.74928H16.5485Z" fill="#009845"/>
</svg>
