<svg width="85" height="85" viewBox="0 0 85 85" fill="none" xmlns="http://www.w3.org/2000/svg">
<path d="M68.3467 84.8382H16.0615C11.8838 84.8306 7.87714 83.1784 4.90919 80.2392C1.94123 77.3 0.250861 73.3105 0.204102 69.1345V16.7197C0.243114 12.5385 1.93007 8.54139 4.89886 5.59584C7.86765 2.65029 11.8787 0.993947 16.0615 0.986328H68.3467C72.555 0.994177 76.5884 2.67087 79.5614 5.64837C82.5344 8.62588 84.2041 12.6609 84.2041 16.8678V69.1345C84.1963 73.3362 82.5231 77.3637 79.5509 80.3348C76.5788 83.3059 72.5499 84.9785 68.3467 84.9863V84.8382ZM16.0615 4.63076C12.8542 4.63076 9.7783 5.90442 7.51039 8.17152C5.24249 10.4386 3.96839 13.5135 3.96839 16.7197V69.1345C4.03048 72.2994 5.33194 75.3137 7.59315 77.5298C9.85436 79.7459 12.8949 80.9869 16.0615 80.9863H68.3467C71.5236 81.0025 74.5792 79.7683 76.8532 77.5506C79.1272 75.3328 80.4368 72.3097 80.4991 69.1345V16.7197C80.4991 13.5135 79.225 10.4386 76.9571 8.17152C74.6892 5.90442 71.6132 4.63076 68.4059 4.63076H16.0615Z" fill="#009845"/>
<path d="M68.6424 21.7268C69.3538 21.0117 69.7519 20.0434 69.7491 19.0349C69.7463 18.0263 69.3429 17.0602 68.6275 16.349C67.9122 15.6379 66.9435 15.2399 65.9346 15.2427C64.9258 15.2455 63.9593 15.6488 63.2479 16.3639C62.8901 16.7205 62.6085 17.1459 62.42 17.6145C62.2315 18.083 62.1401 18.5849 62.1512 19.0898C61.9797 19.212 61.8209 19.3509 61.677 19.5046C60.2839 20.8972 59.9282 22.4675 61.2916 23.712C62.6551 24.9564 64.0778 24.7194 65.4709 23.3268C65.6257 23.1839 65.7648 23.0251 65.8858 22.8527C66.3973 22.8589 66.9048 22.7624 67.3783 22.569C67.8517 22.3756 68.2816 22.0892 68.6424 21.7268Z" fill="#009845"/>
<path d="M36.0383 67.2976C35.186 68.2471 34.1474 69.0112 32.9872 69.5425C31.8269 70.0737 30.5698 70.3608 29.2939 70.3858C28.0179 70.4108 26.7505 70.1732 25.5703 69.6878C24.3901 69.2024 23.3224 68.4796 22.4335 67.5643L17.3947 62.5273C13.7193 58.8532 13.2451 52.068 17.6614 48.9569C21.2775 46.4384 27.3538 44.4532 32.4815 39.3273C36.5046 34.6373 39.9387 29.473 42.7073 23.9495C41.8478 31.4458 50.6509 43.4754 61.0545 42.3198C55.6576 45.0263 50.5611 48.2938 45.8492 52.068C41.6106 56.1569 39.9211 62.4384 36.0679 67.2976" fill="#009845"/>
<path d="M63.7816 32.1567C64.4137 31.1476 64.6792 29.9519 64.5335 28.7703C64.3877 27.5886 63.8397 26.4931 62.9813 25.6678C62.1502 25.4776 61.3895 25.057 60.7866 24.4543C60.1837 23.8516 59.763 23.0912 59.5727 22.2603C58.7478 21.4025 57.6542 20.8525 56.4734 20.7015C55.2927 20.5506 54.0958 20.8079 53.0815 21.4307C53.2116 24.265 54.3963 26.9484 56.4032 28.9547C58.4102 30.9609 61.0945 32.1452 63.9298 32.2752" fill="#009845"/>
<path d="M63.0115 33.1645C60.1332 32.9457 57.4489 31.6305 55.5126 29.4904C53.3844 27.5542 52.0619 24.8892 51.8075 22.0238C49.0807 20.6312 46.4427 20.3646 44.8125 22.0238C42.5302 24.3053 44.1604 30.9127 49.0214 35.9793C54.3862 41.4904 60.8774 42.6164 63.1004 40.3053C64.7603 38.6756 64.4639 35.9793 63.1004 33.1941" fill="#009845"/>
</svg>
