<svg width="77" height="78" viewBox="0 0 77 78" fill="none" xmlns="http://www.w3.org/2000/svg">
<path d="M77 62.1808V14.7874C77 6.75459 70.7661 0.443115 62.6852 0.443115H14.3148C6.23389 0.443115 0 6.75459 0 14.7874V63.0989C0 71.1316 6.23389 77.4431 14.3148 77.4431H62.6852C70.7661 77.3284 77 71.1316 77 62.1808Z" fill="#53575A"/>
<path d="M24.5893 43.4759H15.3539L13.6223 47.7218H8.88916L17.7782 27.9841H22.2805L31.1695 47.7218H26.3209L24.5893 43.4759ZM23.0885 40.0333L19.9716 32.4595L16.8547 40.0333H23.0885Z" fill="white"/>
<path d="M48.6011 32.5742V45.1972C48.6011 47.9513 47.9085 50.0169 46.4077 51.3939C44.907 52.771 42.829 53.4595 40.0584 53.4595C38.5576 53.4595 37.1723 53.23 35.9025 52.8857C34.6326 52.5415 33.4782 51.9677 32.5546 51.2792L34.2863 48.066C34.9789 48.6398 35.787 48.9841 36.7106 49.3283C37.7495 49.6726 38.6731 49.7874 39.7121 49.7874C41.2128 49.7874 42.3672 49.4431 43.0599 48.7546C43.7525 48.066 44.0989 47.0333 44.0989 45.6562V44.9677C42.9444 46.23 41.3282 46.9185 39.2503 46.9185C37.865 46.9185 36.5951 46.5742 35.4407 46.0005C34.2863 45.4267 33.3627 44.5087 32.6701 43.3611C31.9774 42.2136 31.6311 40.9513 31.6311 39.5742C31.6311 38.1972 31.9774 36.8201 32.6701 35.7874C33.3627 34.6398 34.2863 33.8365 35.4407 33.148C36.5951 32.4595 37.865 32.23 39.2503 32.23C41.4437 32.23 43.1753 32.9185 44.3298 34.4103V32.4595H48.6011V32.5742ZM43.0599 42.3283C43.7525 41.6398 44.2143 40.7218 44.2143 39.5742C44.2143 38.4267 43.868 37.5087 43.0599 36.8201C42.3672 36.1316 41.3282 35.7874 40.1738 35.7874C39.0194 35.7874 37.9804 36.1316 37.2878 36.8201C36.4797 37.5087 36.1333 38.4267 36.1333 39.5742C36.1333 40.7218 36.4797 41.6398 37.2878 42.3283C38.0959 43.0169 39.0194 43.3611 40.1738 43.3611C41.3282 43.3611 42.3672 43.0169 43.0599 42.3283Z" fill="white"/>
<path d="M65.9181 39.5743H60.9541V44.394H57.2599V39.5743H52.2959V36.1317H57.2599V31.312H60.9541V36.1317H65.9181V39.5743Z" fill="white"/>
</svg>
