<svg width="77" height="78" viewBox="0 0 77 78" fill="none" xmlns="http://www.w3.org/2000/svg">
<path d="M63.4185 60.5201C63.4185 61.4286 63.4185 61.4286 62.4977 61.4286H29.0045C29.0045 61.4286 28.0837 61.4286 28.0837 60.5201L26.2421 32.6962H27.1629L34.414 40.7594V32.6962C34.414 32.6962 34.414 32.6962 34.414 31.7876C34.414 31.7876 34.4141 31.7876 35.3348 31.7876C35.3348 31.7876 35.3348 31.7876 36.2556 31.7876L44.4275 39.8509V32.6962C44.4275 32.6962 44.4275 32.6962 44.4275 31.7876C44.4275 31.7876 44.4275 31.7876 45.3483 31.7876C45.3483 31.7876 45.3483 31.7876 46.2691 31.7876L54.4409 39.8509V32.6962C54.4409 32.6962 54.4409 32.6962 54.4409 31.7876C54.4409 31.7876 54.441 31.7876 55.3617 31.7876C55.3617 31.7876 55.3617 31.7876 56.2825 31.7876L63.3034 40.873C63.3034 40.873 63.3034 40.873 63.3034 41.7815L63.4185 60.5201ZM25.2063 61.5422L13.2362 61.4286C13.2362 61.4286 13.2362 61.4286 13.2362 60.5201L15.423 16.5696C15.423 16.5696 15.423 16.5696 15.423 15.6611C15.423 15.6611 15.423 15.6611 16.3438 15.6611H21.7534C21.7534 15.6611 21.7534 15.6611 22.6742 15.6611C22.6742 15.6611 22.6742 15.6611 22.6742 16.5696L25.2063 61.5422ZM77 62.2236V14.7526C77 6.68931 70.6696 0.443115 62.4977 0.443115H14.5022C6.33035 0.443115 0 6.68931 0 14.7526V63.1322C0 71.1954 6.33035 77.4416 14.5022 77.4416H63.4185C70.6697 77.5552 77 71.1954 77 62.2236Z" fill="#009845"/>
</svg>
