<svg width="77" height="78" viewBox="0 0 77 78" fill="none" xmlns="http://www.w3.org/2000/svg">
<path d="M13.437 0.443115H63.563C70.6904 0.443115 77 6.73345 77 13.8392V64.0454C77 71.2677 70.6904 77.4415 63.563 77.4415H13.437C6.30956 77.558 0 71.2677 0 64.0454V13.9557C0 6.73345 6.30956 0.443115 13.437 0.443115Z" fill="#19AFE6"/>
<path d="M59.123 46.2227C59.123 57.8715 50.1261 66.841 38.5585 66.841C26.991 66.841 17.8772 57.755 17.8772 46.2227C17.8772 34.6904 38.5585 12.0918 38.5585 12.0918C38.5585 12.0918 59.123 34.5739 59.123 46.2227Z" fill="white"/>
<path d="M27.8086 57.755H25.1212V45.2908L22.4338 47.0381V43.427L27.8086 40.7478V57.755V57.755Z" fill="#19AFE6"/>
<path d="M36.6888 52.3968V46.2229C36.6888 44.4756 35.7541 43.5437 34.9362 43.5437C34.0014 43.5437 33.1835 44.4756 33.1835 46.2229V52.5133C33.1835 54.2606 34.1182 55.1925 34.9362 55.1925C35.8709 55.076 36.6888 54.2606 36.6888 52.3968ZM39.3762 52.3968C39.3762 56.0079 37.6236 57.7552 34.9362 57.7552C32.2487 57.7552 30.4961 56.0079 30.4961 52.3968V46.2229C30.4961 42.6118 32.2487 40.8645 34.9362 40.8645C37.6236 40.8645 39.3762 42.6118 39.3762 46.2229V52.3968Z" fill="#19AFE6"/>
<path d="M47.4386 52.3968V46.2229C47.4386 44.4756 46.5038 43.5437 45.6859 43.5437C44.7512 43.5437 43.9333 44.4756 43.9333 46.2229V52.5133C43.9333 54.2606 44.868 55.1925 45.6859 55.1925C46.6207 55.076 47.4386 54.2606 47.4386 52.3968ZM50.126 52.3968C50.126 56.0079 48.3733 57.7552 45.6859 57.7552C42.9985 57.7552 41.2458 56.0079 41.2458 52.3968V46.2229C41.2458 42.6118 42.9985 40.8645 45.6859 40.8645C48.3733 40.8645 50.126 42.6118 50.126 46.2229V52.3968Z" fill="#19AFE6"/>
<path d="M51.1777 42.6116C51.1777 42.2621 51.1777 42.0292 51.2946 41.7962C51.4114 41.5632 51.4114 41.4467 51.5283 41.2138C51.6451 41.0973 51.762 40.9808 51.8788 40.8643C51.9956 40.7478 52.2293 40.7478 52.3462 40.7478C52.5799 40.7478 52.6967 40.7478 52.8135 40.8643C52.9304 40.9808 53.0472 41.0973 53.1641 41.2138C53.2809 41.3302 53.3978 41.5632 53.3978 41.7962C53.5146 42.0292 53.5146 42.2621 53.5146 42.6116C53.5146 42.9611 53.5146 43.194 53.3978 43.427C53.2809 43.66 53.2809 43.7765 53.1641 44.0095C53.0472 44.1259 52.9304 44.2424 52.8135 44.3589C52.6967 44.4754 52.463 44.4754 52.3462 44.4754C52.1125 44.4754 51.9956 44.4754 51.8788 44.3589C51.762 44.2424 51.6451 44.1259 51.5283 44.0095C51.4114 43.893 51.2946 43.66 51.2946 43.427C51.1777 43.194 51.1777 42.8446 51.1777 42.6116ZM52.6967 42.6116C52.6967 42.4951 52.6967 42.3786 52.6967 42.1457C52.6967 42.0292 52.6967 41.9127 52.5799 41.7962C52.5799 41.6797 52.463 41.6797 52.463 41.5632C52.463 41.5632 52.3462 41.4467 52.2293 41.4467C52.1125 41.4467 52.1125 41.4467 51.9956 41.5632C51.9956 41.5632 51.8788 41.6797 51.8788 41.7962C51.8788 41.9127 51.8788 42.0292 51.762 42.1457C51.762 42.2621 51.762 42.3786 51.762 42.6116C51.762 42.7281 51.762 42.8446 51.762 43.0776C51.762 43.194 51.762 43.3105 51.8788 43.427C51.8788 43.5435 51.9956 43.5435 51.9956 43.66C51.9956 43.66 52.1125 43.7765 52.2293 43.7765C52.3462 43.7765 52.3462 43.7765 52.463 43.66C52.463 43.66 52.5799 43.5435 52.5799 43.427C52.5799 43.3105 52.5799 43.194 52.6967 43.0776C52.6967 42.8446 52.6967 42.7281 52.6967 42.6116ZM56.3189 41.2138L52.5799 46.4557L52.1125 46.1062L55.8515 40.8643L56.3189 41.2138ZM54.7999 44.7084C54.7999 44.3589 54.7999 44.1259 54.9167 43.893C55.0336 43.66 55.0336 43.5435 55.1504 43.3105C55.2673 43.194 55.3841 43.0776 55.501 42.9611C55.6178 42.8446 55.8515 42.8446 55.9683 42.8446C56.202 42.8446 56.3189 42.8446 56.4357 42.9611C56.5525 43.0776 56.6694 43.194 56.7862 43.3105C56.9031 43.427 57.0199 43.66 57.0199 43.893C57.1368 44.1259 57.1368 44.3589 57.1368 44.7084C57.1368 45.0579 57.1368 45.2908 57.0199 45.5238C56.9031 45.7568 56.9031 45.8733 56.7862 46.1062C56.6694 46.3392 56.5525 46.3392 56.4357 46.4557C56.3189 46.5722 56.0852 46.5722 55.9683 46.5722C55.7346 46.5722 55.6178 46.5722 55.501 46.4557C55.3841 46.3392 55.2673 46.2227 55.1504 46.1062C55.0336 45.9898 54.9167 45.7568 54.9167 45.5238C54.7999 45.1743 54.7999 44.9414 54.7999 44.7084ZM56.4357 44.7084C56.4357 44.5919 56.4357 44.4754 56.4357 44.2424C56.4357 44.1259 56.4357 44.0095 56.3189 43.893C56.3189 43.7765 56.202 43.7765 56.202 43.66C56.202 43.66 56.0852 43.5435 55.9683 43.5435C55.8515 43.5435 55.8515 43.5435 55.7346 43.66C55.7346 43.66 55.6178 43.7765 55.6178 43.893C55.6178 44.0095 55.6178 44.1259 55.501 44.2424C55.501 44.3589 55.501 44.4754 55.501 44.7084C55.501 44.8249 55.501 44.9414 55.501 45.1743C55.501 45.2908 55.501 45.4073 55.6178 45.5238C55.6178 45.6403 55.7346 45.6403 55.7346 45.7568C55.7346 45.7568 55.8515 45.8733 55.9683 45.8733C56.0852 45.8733 56.0852 45.8733 56.202 45.7568C56.202 45.7568 56.3189 45.6403 56.3189 45.5238C56.3189 45.4073 56.3189 45.2908 56.4357 45.1743C56.4357 44.9414 56.4357 44.8249 56.4357 44.7084Z" fill="#19AFE6"/>
<path d="M30.0288 25.8381H32.132V29.7987H34.7026V25.8381H36.8057V36.322H34.7026V31.6625H32.132V36.322H30.0288V25.8381Z" fill="#19AFE6"/>
<path d="M40.6616 31.0794C40.6616 29.3321 41.0122 27.9342 41.5964 27.0023C42.1806 26.0704 43.1153 25.6045 44.4006 25.6045C45.5691 25.6045 46.5038 26.0704 47.2049 27.0023C47.7891 27.9342 48.1396 29.3321 48.1396 31.0794C48.1396 32.8267 47.7891 34.2246 47.2049 35.1565C46.6207 36.0884 45.6859 36.5543 44.4006 36.5543C43.2322 36.5543 42.2974 36.0884 41.5964 35.1565C41.0122 34.2246 40.6616 32.9432 40.6616 31.0794ZM44.2838 27.5848C43.6996 27.5848 43.349 27.8178 43.1153 28.4002C42.8817 28.9826 42.7648 29.9145 42.7648 31.0794C42.7648 32.3608 42.8817 33.2927 43.1153 33.7586C43.349 34.3411 43.6996 34.5741 44.2838 34.5741C44.868 34.5741 45.2185 34.3411 45.4522 33.7586C45.6859 33.1762 45.8027 32.2443 45.8027 31.0794C45.8027 29.7981 45.6859 28.8662 45.4522 28.4002C45.2185 27.8178 44.868 27.5848 44.2838 27.5848Z" fill="#19AFE6"/>
<path d="M38.792 37.253H40.311V37.8355H37.9741V37.253L38.3247 36.7871C38.792 36.3211 39.0257 35.9717 39.1426 35.8552C39.2594 35.7387 39.3762 35.6222 39.3762 35.5057C39.3762 35.3892 39.4931 35.2728 39.4931 35.1563C39.4931 35.0398 39.4931 34.9233 39.3762 34.8068C39.2594 34.6903 39.1426 34.6903 38.9089 34.6903C38.792 34.6903 38.6752 34.6903 38.4415 34.8068C38.2078 34.9233 38.091 34.9233 37.9741 35.0398V34.3409C38.091 34.2244 38.3247 34.2244 38.4415 34.2244C38.5583 34.2244 38.792 34.2244 38.9089 34.2244C39.2594 34.2244 39.6099 34.3409 39.8436 34.4573C40.0773 34.6903 40.1942 34.9233 40.1942 35.1563C40.1942 35.2728 40.1942 35.3892 40.0773 35.5057C40.0773 35.6222 39.9605 35.7387 39.8436 35.9717C39.7268 36.0882 39.4931 36.3211 39.1426 36.6706C39.1426 37.0201 38.9089 37.1366 38.792 37.253Z" fill="#19AFE6"/>
</svg>
